<?xml version="1.0" standalone="no"?>
<!DOCTYPE svg PUBLIC "-//W3C//DTD SVG 20010904//EN"
 "http://www.w3.org/TR/2001/REC-SVG-20010904/DTD/svg10.dtd">
<svg version="1.0" xmlns="http://www.w3.org/2000/svg"
 width="94.000000pt" height="94.000000pt" viewBox="0 0 94.000000 94.000000"
 preserveAspectRatio="xMidYMid meet">
<metadata>
Created by potrace 1.14, written by Peter Selinger 2001-2017
</metadata>
<g transform="translate(0.000000,94.000000) scale(0.100000,-0.100000)"
fill="#000000" stroke="none">
<path d="M455 931 c-6 -5 -26 -18 -45 -29 -127 -71 -345 -194 -348 -196 -1 -2
88 -155 198 -341 110 -187 201 -343 203 -349 6 -18 23 3 72 86 27 46 118 200
202 342 139 234 152 261 136 270 -10 6 -42 25 -73 42 -30 17 -88 49 -128 72
-41 23 -75 42 -77 42 -1 0 -29 16 -61 35 -63 38 -66 39 -79 26z m5 -175 l0
-144 -29 -7 c-16 -3 -35 -13 -42 -21 -6 -8 -18 -14 -26 -14 -13 0 -243 128
-243 136 0 2 21 15 48 29 26 14 54 29 62 35 8 5 49 28 90 52 41 23 89 50 105
60 17 9 31 17 33 17 1 1 2 -64 2 -143z m155 73 c33 -19 74 -42 90 -51 17 -10
51 -29 78 -43 26 -14 47 -27 47 -29 0 -6 -206 -123 -230 -131 -13 -4 -31 1
-49 14 -16 12 -36 21 -45 21 -14 0 -16 19 -16 146 l0 146 33 -20 c17 -10 59
-34 92 -53z m-379 -255 c83 -43 91 -53 96 -112 5 -50 4 -54 -23 -67 l-27 -15
-71 121 c-39 67 -71 123 -71 126 0 3 10 -2 23 -10 12 -9 45 -28 73 -43z m504
-72 c-59 -98 -75 -119 -91 -115 -27 8 -33 20 -33 80 l-1 52 95 54 c52 30 96
53 98 52 2 -2 -29 -57 -68 -123z m-204 63 c13 -8 24 -17 24 -19 0 -7 -64 5
-70 12 -9 12 -41 7 -51 -8 -9 -12 -10 -11 -5 5 6 19 5 19 -8 3 -7 -10 -19 -18
-26 -18 -21 0 18 38 44 43 32 6 65 0 92 -18z m-160 -91 c-3 -8 0 -14 6 -14 6
0 5 -6 -3 -17 -10 -11 -10 -14 -1 -9 7 4 12 2 12 -4 0 -12 24 -40 35 -40 3 0
3 6 -1 13 -4 6 -5 10 -1 7 3 -3 6 -9 7 -15 1 -5 7 -16 13 -24 10 -11 8 -13
-13 -6 -31 9 -67 52 -72 86 -5 33 1 51 14 43 5 -3 7 -12 4 -20z m214 -7 c0
-18 -6 -41 -13 -51 -13 -17 -14 -17 -28 0 -7 10 -9 15 -3 11 7 -4 18 1 25 10
10 12 10 14 2 9 -8 -4 -13 -1 -13 9 0 10 5 13 13 9 9 -6 9 -4 -1 8 -12 16 -10
19 16 27 1 1 2 -14 2 -32z m-35 -68 c7 -11 -22 -38 -42 -39 -7 0 -10 7 -7 15
4 8 13 15 21 15 8 0 11 5 8 10 -3 6 -2 10 4 10 5 0 13 -5 16 -11z m-185 -28
c0 -5 17 -17 38 -28 l37 -18 2 -109 c1 -60 -2 -105 -6 -100 -12 14 -126 207
-134 226 -4 11 0 21 11 27 21 13 52 14 52 2z m257 -6 c22 -15 22 -15 -44 -128
-36 -61 -69 -116 -73 -120 -4 -5 -7 41 -7 102 l0 110 32 11 c18 6 36 17 39 25
7 19 26 19 53 0z"/>
</g>
</svg>
